<?xml version="1.0" encoding="utf-8"?>
<!-- Generator: Adobe Illustrator 27.9.1, SVG Export Plug-In . SVG Version: 6.00 Build 0)  -->
<svg version="1.1" id="Layer_1" xmlns="http://www.w3.org/2000/svg" xmlns:xlink="http://www.w3.org/1999/xlink" x="0px" y="0px"
	 viewBox="0 0 406 56.5" style="enable-background:new 0 0 406 56.5;" xml:space="preserve">
<style type="text/css">
	.st0{fill:#ED4A8C;}
</style>
<g>
	<path class="st0" d="M9.1,27.8v0.3l20.2,9.5v8.9L0,31.5v-6.9L29.3,9.1V18L9.1,27.8z"/>
	<path d="M45.9,33.2c0.4,3.7,4.2,6,9.1,6c4.9,0,8.3-2.4,8.3-5.6c0-2.9-2.1-4.5-7.5-5.7l-5.8-1.3C42,24.9,38,20.8,38,14.3
		C38,6.1,45,0.7,54.9,0.7c10.3,0,16.8,5.3,16.9,13.3h-8.7c-0.3-3.7-3.6-6-8.2-6c-4.6,0-7.6,2.2-7.6,5.5c0,2.7,2.1,4.3,7.2,5.4
		l5.4,1.1c8.9,1.9,12.7,5.7,12.7,12.5c0,8.6-7,14-18,14C44,46.6,37.3,41.5,37,33.2H45.9z"/>
	<path d="M77.6,12.9h8.7v5.9h0.2c1.7-4.1,5.2-6.5,10.3-6.5c7.3,0,11.4,4.6,11.4,12.3v21.2h-9V26.5c0-4.3-2-6.8-6-6.8
		s-6.6,2.9-6.6,7.2v18.9h-9V12.9z"/>
	<path d="M161.5,29.3c0,10.6-5.1,17-13.3,17c-4.8,0-8.5-2.3-10.2-6h-0.2v16.3h-9V12.9h8.8v5.7h0.2c1.8-3.9,5.4-6.3,10.2-6.3
		C156.4,12.4,161.5,18.7,161.5,29.3z M152.3,29.3c0-6-2.8-9.8-7.3-9.8c-4.4,0-7.3,3.9-7.3,9.8c0,6,2.9,9.8,7.3,9.8
		C149.5,39.1,152.3,35.3,152.3,29.3z"/>
	<path class="st0" d="M238,46.5L208.7,31v-6.9l29.3-15V18l-20.1,9.5v0.3l20.1,9.8V46.5z"/>
	<path class="st0" d="M188.2,27.8v-0.3L168,18V9.1l29.3,15V31L168,46.5v-8.9L188.2,27.8z"/>
	<path d="M254.6,33.2c0.4,3.7,4.2,6,9.1,6c4.9,0,8.3-2.4,8.3-5.6c0-2.9-2.1-4.5-7.5-5.7l-5.8-1.3c-8.2-1.7-12.2-5.9-12.2-12.4
		c0-8.2,7.1-13.6,16.9-13.6c10.3,0,16.8,5.3,16.9,13.3h-8.7c-0.3-3.7-3.6-6-8.2-6c-4.6,0-7.6,2.2-7.6,5.5c0,2.7,2.2,4.3,7.2,5.4
		l5.4,1.1c8.9,1.9,12.7,5.7,12.7,12.5c0,8.6-7,14-18,14c-10.7,0-17.4-5.1-17.7-13.4H254.6z"/>
	<path d="M286.3,12.9h8.7v5.9h0.2c1.8-4.1,5.2-6.5,10.3-6.5c7.3,0,11.4,4.6,11.4,12.3v21.2h-9V26.5c0-4.3-2-6.8-6-6.8
		c-4,0-6.6,2.9-6.6,7.2v18.9h-9V12.9z"/>
	<g>
		<rect x="113.9" y="12.9" width="9" height="32.9"/>
		<path d="M118.4,0c-2.7,0-4.8,2-4.8,4.6c0,2.6,2.1,4.6,4.8,4.6c2.7,0,4.8-2.1,4.8-4.6C123.2,2,121.1,0,118.4,0z"/>
		<path d="M327.1,9.3c2.7,0,4.8-2.1,4.8-4.6c0-2.6-2.1-4.6-4.8-4.6c-2.7,0-4.8,2-4.8,4.6C322.3,7.2,324.4,9.3,327.1,9.3z"/>
		<rect x="322.6" y="12.9" width="9" height="32.9"/>
	</g>
	<path d="M370.2,29.3c0,10.6-5.1,17-13.3,17c-4.8,0-8.5-2.3-10.2-6h-0.2v16.3h-9V12.9h8.8v5.7h0.2c1.8-3.9,5.4-6.3,10.2-6.3
		C365.1,12.4,370.2,18.7,370.2,29.3z M361.1,29.3c0-6-2.8-9.8-7.3-9.8c-4.4,0-7.3,3.9-7.3,9.8c0,6,2.9,9.8,7.3,9.8
		C358.2,39.1,361.1,35.3,361.1,29.3z"/>
	<path class="st0" d="M376.7,9.1L406,24.6v6.9l-29.3,15v-8.9l20.1-9.5v-0.3L376.7,18V9.1z"/>
</g>
<rect x="-524" y="210.3" class="st0" width="88" height="88"/>
</svg>
