<?xml version="1.0" encoding="utf-8"?>
<!-- Generator: Adobe Illustrator 27.9.1, SVG Export Plug-In . SVG Version: 6.00 Build 0)  -->
<svg version="1.1" id="Layer_1" xmlns="http://www.w3.org/2000/svg" xmlns:xlink="http://www.w3.org/1999/xlink" x="0px" y="0px"
	 viewBox="0 0 698 161.9" style="enable-background:new 0 0 698 161.9;" xml:space="preserve">
<style type="text/css">
	.st0{fill:#FFFFFF;}
	.st1{fill:#F4C84D;}
</style>
<g>
	<g>
		<path class="st0" d="M45.2,146.6L29.9,12.9h37.3l5.4,98.3h0.6l46.2-98.3h38.5l-71,133.7H45.2z"/>
		<path class="st0" d="M244.2,88.8c0,34.8-24.5,60.2-58.4,60.2c-28.4,0-47.3-18.3-47.3-45.5c0-34.8,24.5-60.2,58.4-60.2
			C225.2,43.3,244.2,61.6,244.2,88.8z M211.6,89.4c0-12.8-6.4-21.3-16.2-21.3c-14.3,0-24.6,14.8-24.6,34.7
			c0,12.8,6.4,21.3,16.3,21.3C201.1,124.2,211.6,109.1,211.6,89.4z"/>
		<path class="st0" d="M246.1,129.2L304.6,71l0.2-0.6h-44.9l5.3-24.6h85.2l-4.4,20L291,121.3l-0.1,0.6h44.8l-5.3,24.6h-88
			L246.1,129.2z"/>
		<path class="st0" d="M452.1,43.4c25.2,0,42.9,13.6,43.6,33.3h-28.7c-0.5-7-6.6-11.8-15.3-11.8c-8.2,0-13.4,3.5-13.4,8.8
			c0,4.4,3.1,6.8,13.3,10.2l10.7,3.5c19.1,6.4,26.4,14.1,26.4,27.6c0,20.4-18.3,34-45.8,34c-28.1,0-46.2-13.6-47.1-34.4h30.3
			c0.6,7.5,7.3,12.7,17.7,12.7c8.2,0,13.3-3.5,13.3-8.9c0-4.2-3-6.3-12.8-9.6l-9.1-3.1c-18.7-6.2-27.3-15.4-27.3-29.3
			C407.9,56.5,425.3,43.4,452.1,43.4z"/>
		<path class="st0" d="M503.6,103.1c0-34.2,22.3-59.9,55.5-59.9c26.7,0,44.8,17,44.8,43.4c0,5.2-0.5,11.6-1.6,16.5h-69.6
			c-0.2,1-0.3,2-0.3,3.1c0,11.4,7.1,19.6,18.9,19.6c9.3,0,16.1-4.7,18.5-11.8h29.7c-5.2,20.7-24,34.8-49.8,34.8
			C521.3,148.9,503.6,131.5,503.6,103.1z M574.3,84.8c0.2-0.6,0.3-1.9,0.3-2.9c0-8.8-6.2-15.8-16.8-15.8c-10.8,0-19.4,7.8-22.1,18.7
			H574.3z"/>
	</g>
	<polygon class="st0" points="365.9,45.7 344.4,146.6 376.4,146.6 395.3,45.7 	"/>
	<g>
		<path class="st1" d="M607.4,149l8.2-38.4h11.2l3.9,26.1h0.2l14.7-26.1h12.2l-8.2,38.4h-8.7l5.5-25.5h-0.3l-14.6,25.5h-5.9
			l-3.8-25.5h-0.2l-5.4,25.5H607.4z"/>
		<path class="st1" d="M655.8,149l8.2-38.4h9.8l-3.5,16.4h0.2l16.3-16.4H698l-17.6,17.8l9.4,20.6h-10.8l-6.8-15.1l-4.5,4.5
			l-2.2,10.6H655.8z"/>
	</g>
	<polygon class="st1" points="373,13.9 368,37.2 447,13.9 	"/>
	<g>
		<polygon class="st1" points="601.7,149 582,149 603.9,139.4 604.2,139.4 		"/>
	</g>
</g>
</svg>
