<svg width="15" height="15" viewBox="0 0 15 15" fill="none" xmlns="http://www.w3.org/2000/svg">
<g clip-path="url(#clip0_117_2646)">
<g clip-path="url(#clip1_117_2646)">
<path d="M5.40969 12.0578C5.30645 12.0785 5.25484 12.1301 5.27548 12.2024C5.28581 12.285 5.34775 12.3056 5.45098 12.285C5.55422 12.254 5.60583 12.2127 5.58519 12.1508C5.57486 12.0785 5.51292 12.0475 5.40969 12.0578Z" fill="black"/>
<path d="M4.85212 12.1404C4.74888 12.1404 4.69727 12.1714 4.69727 12.2436C4.69727 12.3262 4.74888 12.3675 4.86244 12.3469C4.96568 12.3469 5.01729 12.3159 5.01729 12.2436C5.01729 12.161 4.96568 12.1197 4.85212 12.1404Z" fill="black"/>
<path d="M4.08803 12.1094C4.05706 12.1816 4.10867 12.2333 4.21191 12.2539C4.30482 12.2952 4.36676 12.2745 4.39773 12.192C4.41838 12.1197 4.37708 12.0681 4.27385 12.0371C4.18094 12.0061 4.119 12.0371 4.08803 12.1094Z" fill="black"/>
<path d="M14.1741 0.825877C13.627 0.278734 12.9663 0 12.192 0H2.80798C2.03372 0 1.37302 0.278734 0.825877 0.825877C0.278734 1.37302 0 2.03372 0 2.80798V12.1817C0 12.956 0.278734 13.6167 0.825877 14.1638C1.37302 14.7109 2.03372 14.9897 2.80798 14.9897H4.99656C5.14109 14.9897 5.24432 14.9897 5.31659 14.9794C5.38885 14.9794 5.46111 14.9277 5.53338 14.8555C5.60564 14.7832 5.63661 14.6696 5.63661 14.5251C5.63661 14.5045 5.63661 14.2877 5.63661 13.8644C5.63661 13.4412 5.63661 13.1108 5.63661 12.863L5.4095 12.9043C5.26497 12.9353 5.08947 12.9456 4.87268 12.9353C4.65588 12.9353 4.42877 12.9043 4.19133 12.863C3.95389 12.8217 3.7371 12.7185 3.54095 12.574C3.33448 12.4191 3.20028 12.223 3.10736 11.9752L3.01445 11.7481C2.95251 11.6036 2.84928 11.4281 2.70475 11.2526C2.56022 11.0668 2.42602 10.9429 2.28149 10.8809L2.20922 10.8293C2.20922 10.8293 2.11631 10.7571 2.08534 10.7158C2.04405 10.6745 2.01308 10.6228 1.99243 10.5816C1.97178 10.5403 1.99243 10.499 2.04405 10.468C2.09566 10.437 2.18858 10.4267 2.32278 10.4267L2.51893 10.4577C2.65313 10.4886 2.80798 10.5609 3.00413 10.6951C3.20028 10.8293 3.35513 10.9945 3.47901 11.201C3.63386 11.4694 3.80936 11.6758 4.01583 11.81C4.2223 11.9546 4.43909 12.0165 4.65588 12.0165C4.87268 12.0165 5.0585 11.9959 5.21335 11.9649C5.3682 11.9339 5.51273 11.8823 5.65726 11.8204C5.7192 11.3868 5.87405 11.0461 6.13214 10.819C5.7605 10.7777 5.43014 10.7261 5.13076 10.6435C4.83138 10.5609 4.532 10.437 4.21198 10.2615C3.89195 10.086 3.63386 9.86924 3.42739 9.61115C3.22092 9.35306 3.04542 9.01239 2.91122 8.58913C2.77701 8.16586 2.71507 7.68066 2.71507 7.12319C2.71507 6.33861 2.97316 5.66758 3.48933 5.11012C3.25189 4.52168 3.27254 3.85065 3.5616 3.11769C3.74742 3.05575 4.02615 3.10736 4.3978 3.25189C4.76944 3.39642 5.03785 3.5203 5.21335 3.62354C5.38885 3.72677 5.52306 3.81968 5.62629 3.89195C6.23537 3.72677 6.85478 3.63386 7.50516 3.63386C8.15554 3.63386 8.77495 3.71645 9.38403 3.89195L9.75568 3.65451C10.0138 3.49966 10.3131 3.35513 10.6538 3.22092C10.9945 3.08672 11.2629 3.05575 11.4487 3.11769C11.7378 3.85065 11.7688 4.52168 11.5313 5.11012C12.0475 5.66758 12.3056 6.33861 12.3056 7.12319C12.3056 7.68066 12.2436 8.16586 12.1094 8.58913C11.9752 9.01239 11.7997 9.35306 11.5933 9.61115C11.3868 9.86924 11.1184 10.086 10.7983 10.2615C10.4783 10.437 10.1789 10.5609 9.87956 10.6435C9.58018 10.7261 9.24983 10.7777 8.87818 10.819C9.21886 11.1081 9.38403 11.5726 9.38403 12.2023V14.5354C9.38403 14.649 9.40468 14.7316 9.43565 14.8039C9.46662 14.8761 9.51824 14.9174 9.5905 14.9484C9.66277 14.9794 9.72471 14.9897 9.77632 15C9.82794 15 9.91053 15 10.0138 15H12.2023C12.9766 15 13.6373 14.7213 14.1844 14.1741C14.7316 13.627 15.0103 12.9663 15.0103 12.192V2.80798C15.0103 2.03372 14.7316 1.37302 14.1844 0.825877H14.1741Z" fill="black"/>
<path d="M2.97296 10.9119C2.97296 10.9119 2.93166 10.9944 2.9936 11.0667C3.05554 11.1287 3.10716 11.139 3.14846 11.0977C3.18975 11.0667 3.18975 11.0151 3.12781 10.9428C3.06587 10.8809 3.01425 10.8706 2.97296 10.9119Z" fill="black"/>
<path d="M2.64258 10.6745C2.64258 10.6745 2.64258 10.757 2.71484 10.788C2.76646 10.819 2.80775 10.819 2.83872 10.7674C2.85937 10.7261 2.83872 10.6848 2.76646 10.6538C2.70452 10.6332 2.66323 10.6435 2.64258 10.6745Z" fill="black"/>
<path d="M3.27253 11.2938C3.21059 11.3248 3.21059 11.3868 3.27253 11.4693C3.33447 11.5519 3.38609 11.5726 3.43771 11.5416C3.49965 11.5003 3.49965 11.4384 3.43771 11.3558C3.38609 11.2732 3.33447 11.2525 3.27253 11.2938Z" fill="black"/>
<path d="M3.61316 11.7378C3.55122 11.7894 3.57187 11.8514 3.65446 11.9236C3.73705 12.0062 3.79899 12.0166 3.8506 11.9546C3.90222 11.903 3.8919 11.8411 3.80931 11.7688C3.72672 11.6862 3.66478 11.6759 3.61316 11.7378Z" fill="black"/>
</g>
</g>
<defs>
<clipPath id="clip0_117_2646">
<rect width="15" height="15" fill="white"/>
</clipPath>
<clipPath id="clip1_117_2646">
<rect width="15" height="15" fill="white"/>
</clipPath>
</defs>
</svg>
